<svg aria-hidden="true" style="position: absolute; width: 0; height: 0; overflow: hidden;" version="1.1" xmlns="http://www.w3.org/2000/svg" xmlns:xlink="http://www.w3.org/1999/xlink">
<defs>
<symbol id="clouse" viewBox="0 0 32 32">
<path d="M26.667 7.303l-1.97-1.97-7.808 7.808-7.808-7.808-1.97 1.97 7.808 7.808-7.808 7.808 1.97 1.97 7.808-7.808 7.808 7.808 1.97-1.97-7.808-7.808 7.808-7.808z"></path>
</symbol>
<symbol id="burger" viewBox="0 0 36 32">
<path d="M0 0h36v4h-36v-4zM12 14h24v4h-24v-4zM0 28h36v4h-36v-4z"></path>
</symbol>
<symbol id="arrow-right" viewBox="0 0 49 32">
<path stroke-linejoin="miter" stroke-linecap="butt" stroke-miterlimit="4" stroke-width="0.5" d="M31.75 16c0 8.698-7.052 15.75-15.75 15.75s-15.75-7.052-15.75-15.75c0-8.698 7.051-15.75 15.75-15.75s15.75 7.051 15.75 15.75z"></path>
<path d="M48.177 16.177c0.045-0.045 0.073-0.108 0.073-0.177s-0.028-0.132-0.073-0.177v0l-1.591-1.591c-0.046-0.047-0.109-0.076-0.18-0.076-0.138 0-0.25 0.112-0.25 0.25 0 0.071 0.029 0.134 0.076 0.18l1.414 1.414-1.414 1.414c-0.045 0.045-0.073 0.108-0.073 0.177 0 0.138 0.112 0.25 0.25 0.25 0.069 0 0.132-0.028 0.177-0.073v0l1.591-1.59zM15 16.25h33v-0.5h-33v0.5z"></path>
</symbol>
<symbol id="arrow-left" viewBox="0 0 49 32">
<path stroke-linejoin="miter" stroke-linecap="butt" stroke-miterlimit="4" stroke-width="0.5" d="M48.25 16c0 8.698-7.051 15.75-15.75 15.75s-15.75-7.052-15.75-15.75c0-8.698 7.052-15.75 15.75-15.75s15.75 7.051 15.75 15.75z"></path>
<path d="M0.323 15.823c-0.045 0.045-0.073 0.108-0.073 0.177s0.028 0.132 0.073 0.177v0l1.591 1.59c0.045 0.045 0.108 0.073 0.177 0.073 0.138 0 0.25-0.112 0.25-0.25 0-0.069-0.028-0.131-0.073-0.177v0l-1.415-1.414 1.415-1.414c0.045-0.045 0.073-0.108 0.073-0.177 0-0.138-0.112-0.25-0.25-0.25-0.069 0-0.132 0.028-0.177 0.073v0l-1.591 1.591zM0.5 16.25h33v-0.5h-33v0.5z"></path>
</symbol>
<symbol id="icon-tel" viewBox="0 0 32 32">
<path d="M26.331 6.267l-3.346-3.344c-0.392-0.394-0.934-0.638-1.534-0.638s-1.142 0.244-1.534 0.638l-0 0-3.606 3.599c-0.394 0.393-0.638 0.936-0.638 1.537s0.244 1.144 0.638 1.537l2.816 2.818c-0.677 1.554-1.592 2.881-2.715 4l-0 0c-1.119 1.125-2.444 2.042-3.916 2.69l-0.082 0.032-2.815-2.819c-0.392-0.394-0.934-0.638-1.534-0.638s-1.142 0.244-1.534 0.638l-0 0-3.608 3.599c-0.394 0.393-0.638 0.936-0.638 1.537s0.244 1.144 0.638 1.537l3.344 3.343c0.697 0.697 1.659 1.097 2.647 1.097 0.205 0 0.402-0.016 0.603-0.050 4.16-0.686 8.29-2.901 11.625-6.232 3.331-3.337 5.544-7.466 6.235-11.63 0.031-0.181 0.049-0.389 0.049-0.602 0-1.034-0.419-1.97-1.096-2.647l0 0zM25.15 9.143c-0.613 3.705-2.606 7.4-5.607 10.401s-6.694 4.994-10.4 5.606c-0.071 0.012-0.152 0.019-0.235 0.019-0.409 0-0.778-0.166-1.046-0.434l-3.285-3.283 3.482-3.486 3.793 3.8 0.679-0.251c4.177-1.566 7.414-4.803 8.945-8.876l0.034-0.104 0.251-0.679-3.797-3.794 3.482-3.483 3.285 3.283c0.339 0.339 0.496 0.817 0.417 1.282z"></path>
</symbol>
<symbol id="instagram" viewBox="0 0 32 32">
<path d="M16 0c-4.347 0-4.889 0.020-6.596 0.096-1.704 0.080-2.864 0.348-3.884 0.744-1.052 0.408-1.945 0.956-2.835 1.845s-1.439 1.781-1.845 2.835c-0.396 1.020-0.665 2.18-0.744 3.884-0.080 1.707-0.096 2.249-0.096 6.596s0.020 4.889 0.096 6.596c0.080 1.703 0.348 2.864 0.744 3.884 0.408 1.051 0.956 1.945 1.845 2.835 0.889 0.888 1.781 1.439 2.835 1.845 1.021 0.395 2.181 0.665 3.884 0.744 1.707 0.080 2.249 0.096 6.596 0.096s4.889-0.020 6.596-0.096c1.703-0.080 2.864-0.349 3.884-0.744 1.051-0.408 1.945-0.957 2.835-1.845 0.888-0.889 1.439-1.78 1.845-2.835 0.395-1.020 0.665-2.181 0.744-3.884 0.080-1.707 0.096-2.249 0.096-6.596s-0.020-4.889-0.096-6.596c-0.080-1.703-0.349-2.865-0.744-3.884-0.408-1.052-0.957-1.945-1.845-2.835-0.889-0.889-1.78-1.439-2.835-1.845-1.020-0.396-2.181-0.665-3.884-0.744-1.707-0.080-2.249-0.096-6.596-0.096zM16 2.88c4.271 0 4.78 0.021 6.467 0.095 1.56 0.073 2.407 0.332 2.969 0.553 0.749 0.289 1.28 0.636 1.843 1.195 0.559 0.56 0.905 1.092 1.195 1.841 0.219 0.563 0.48 1.409 0.551 2.969 0.076 1.688 0.093 2.195 0.093 6.467s-0.020 4.78-0.099 6.467c-0.081 1.56-0.341 2.407-0.561 2.969-0.299 0.749-0.639 1.28-1.199 1.843-0.559 0.559-1.099 0.905-1.84 1.195-0.56 0.219-1.42 0.48-2.98 0.551-1.699 0.076-2.199 0.093-6.479 0.093-4.281 0-4.781-0.020-6.479-0.099-1.561-0.081-2.421-0.341-2.981-0.561-0.759-0.299-1.28-0.639-1.839-1.199-0.561-0.559-0.92-1.099-1.2-1.84-0.22-0.56-0.479-1.42-0.56-2.98-0.060-1.68-0.081-2.199-0.081-6.459 0-4.261 0.021-4.781 0.081-6.481 0.081-1.56 0.34-2.419 0.56-2.979 0.28-0.76 0.639-1.28 1.2-1.841 0.559-0.559 1.080-0.919 1.839-1.197 0.56-0.221 1.401-0.481 2.961-0.561 1.7-0.060 2.2-0.080 6.479-0.080zM16 7.784c-4.54 0-8.216 3.68-8.216 8.216 0 4.54 3.68 8.216 8.216 8.216 4.54 0 8.216-3.68 8.216-8.216 0-4.54-3.68-8.216-8.216-8.216zM16 21.333c-2.947 0-5.333-2.387-5.333-5.333s2.387-5.333 5.333-5.333 5.333 2.387 5.333 5.333-2.387 5.333-5.333 5.333zM26.461 7.46c0 1.060-0.861 1.92-1.92 1.92-1.060 0-1.92-0.861-1.92-1.92s0.861-1.919 1.92-1.919c1.057-0.001 1.92 0.86 1.92 1.919z"></path>
</symbol>
<symbol id="facebook" viewBox="0 0 32 32">
<path stroke-linejoin="round" stroke-linecap="round" stroke-miterlimit="4" stroke-width="2.2857" d="M24 2.666h-4c-0 0-0.001 0-0.001 0-3.682 0-6.666 2.985-6.666 6.666 0 0 0 0.001 0 0.001v-0 4h-4v5.333h4v10.667h5.334v-10.667h4l1.334-5.333h-5.334v-4c0-0.737 0.597-1.334 1.334-1.334v0h4v-5.334z"></path>
</symbol>
<symbol id="logo" viewBox="0 0 41 32">
<path d="M10.328 7.834c3.237 0 5.709 0.794 7.415 2.383 1.736 1.589 2.604 3.958 2.604 7.106v14.124h-4.017v-3.090c-0.706 1.089-1.721 1.927-3.046 2.516-1.295 0.559-2.84 0.839-4.634 0.839-2.619 0-4.723-0.633-6.312-1.898-1.56-1.265-2.339-2.928-2.339-4.988s0.75-3.708 2.251-4.943c1.501-1.265 3.884-1.898 7.15-1.898h6.709v-0.839c0-1.824-0.53-3.222-1.589-4.193s-2.619-1.457-4.679-1.457c-1.383 0-2.737 0.235-4.061 0.706-1.324 0.441-2.442 1.045-3.354 1.81l-1.766-3.178c1.206-0.971 2.648-1.707 4.326-2.207 1.677-0.53 3.457-0.794 5.341-0.794zM9.357 28.447c1.618 0 3.016-0.353 4.193-1.059 1.177-0.736 2.030-1.766 2.56-3.090v-3.266h-6.532c-3.59 0-5.385 1.206-5.385 3.619 0 1.177 0.456 2.104 1.368 2.781s2.178 1.015 3.796 1.015z"></path>
<path d="M40.607 19.884c0 0.324-0.029 0.75-0.088 1.28h-18.979c0.265 2.060 1.162 3.722 2.692 4.988 1.559 1.236 3.487 1.854 5.782 1.854 2.795 0 5.046-0.942 6.753-2.825l2.339 2.737c-1.059 1.236-2.383 2.177-3.972 2.825-1.56 0.647-3.31 0.971-5.252 0.971-2.472 0-4.664-0.5-6.577-1.501-1.913-1.030-3.399-2.457-4.458-4.281-1.030-1.824-1.545-3.884-1.545-6.179 0-2.266 0.5-4.311 1.501-6.135 1.030-1.824 2.428-3.237 4.193-4.237 1.795-1.030 3.811-1.545 6.047-1.545s4.222 0.515 5.959 1.545c1.766 1 3.134 2.413 4.105 4.237 1 1.824 1.501 3.914 1.501 6.268zM29.043 11.41c-2.030 0-3.737 0.618-5.12 1.854-1.354 1.236-2.148 2.854-2.383 4.855h15.007c-0.235-1.972-1.045-3.575-2.428-4.811-1.354-1.265-3.046-1.898-5.076-1.898z"></path>
<path d="M37.517 3.31h-15.448v-3.31h15.448v3.31z"></path>
</symbol>
</defs>
</svg>
